HIERARCHY
ROOT Hips
{
	OFFSET 0.000000 0.000000 0.000000
	CHANNELS 6 Xposition Yposition Zposition Zrotation Yrotation Xrotation 
		JOINT LeftUpLeg
		{
			OFFSET 1.363060 -1.794630 0.839290
			CHANNELS 3 Zrotation Yrotation Xrotation
			JOINT LeftLeg
			{
				OFFSET 2.448110 -6.726130 0.000000
				CHANNELS 3 Zrotation Yrotation Xrotation
				JOINT LeftFoot
				{
					OFFSET 2.562200 -7.039590 0.000000
					CHANNELS 3 Zrotation Yrotation Xrotation
					JOINT LeftToeBase
					{
						OFFSET 0.157640 -0.433110 2.322550
						CHANNELS 3 Zrotation Yrotation Xrotation
						End Site
						{
							OFFSET 0.000000 0.000000 0.000000
						}
					}
				}
			}
		}
		JOINT RightUpLeg
		{
			OFFSET -1.305520 -1.794630 0.839290
			CHANNELS 3 Zrotation Yrotation Xrotation
			JOINT RightLeg
			{
				OFFSET -2.542530 -6.985550 0.000000
				CHANNELS 3 Zrotation Yrotation Xrotation
				JOINT RightFoot
				{
					OFFSET -2.568260 -7.056230 0.000000
					CHANNELS 3 Zrotation Yrotation Xrotation
					JOINT RightToeBase
					{
						OFFSET -0.164730 -0.452590 2.363150
						CHANNELS 3 Zrotation Yrotation Xrotation
						End Site
						{
							OFFSET 0.000000 0.000000 0.000000
						}
					}
				}
			}
		}
		JOINT Spine
		{
			OFFSET -0.000000 1.017795 0.000000
			CHANNELS 3 Zrotation Yrotation Xrotation
			JOINT Spine1
			{
				OFFSET 0.056720 2.048850 -0.042750
				CHANNELS 3 Zrotation Yrotation Xrotation
            JOINT Spine2
            {
                OFFSET -0.000000 1.017795 0.000000
                CHANNELS 3 Zrotation Yrotation Xrotation
					JOINT Neck1
					{
						OFFSET -0.054170 1.746240 0.172020
						CHANNELS 3 Zrotation Yrotation Xrotation
						JOINT Head
						{
							OFFSET 0.104070 1.761360 -0.123970
							CHANNELS 3 Zrotation Yrotation Xrotation
							End Site
							{
								OFFSET 0.000000 0.000000 0.000000
							}
						}
					}
				JOINT LeftShoulder
				{
					OFFSET 0.000000 0.000000 0.000000
					CHANNELS 3 Zrotation Yrotation Xrotation
					JOINT LeftArm
					{
						OFFSET 3.362410 1.200890 -0.311210
						CHANNELS 3 Zrotation Yrotation Xrotation
						JOINT LeftForeArm
						{
							OFFSET 4.983000 -0.000000 -0.000000
							CHANNELS 3 Zrotation Yrotation Xrotation
							JOINT LeftHand
							{
								OFFSET 3.483560 -0.000000 -0.000000
								CHANNELS 3 Zrotation Yrotation Xrotation
									End Site
									{
										OFFSET 0.000000 0.000000 0.000000
									}
							}
						}
					}
				}
				JOINT RightShoulder
				{
					OFFSET 0.000000 0.000000 0.000000
					CHANNELS 3 Zrotation Yrotation Xrotation
					JOINT RightArm
					{
						OFFSET -3.136600 1.374050 -0.404650
						CHANNELS 3 Zrotation Yrotation Xrotation
						JOINT RightForeArm
						{
							OFFSET -5.241900 -0.000000 -0.000000
							CHANNELS 3 Zrotation Yrotation Xrotation
							JOINT RightHand
							{
								OFFSET -3.444170 -0.000000 -0.000000
								CHANNELS 3 Zrotation Yrotation Xrotation
									End Site
									{
										OFFSET 0.000000 0.000000 0.000000
									}
							}
						}
					}
				}
			}
            }
		}
}
MOTION
Frames: 5
Frame Time: 0.008333
3.226353    17.367333    -1.192764    165.423391    -82.159013    -156.716865    -12.498749    -1.293644    -26.690714999999997    0.636003    1.801116    41.967727    3.687095    24.755474    13.061821    8.773800    0.000001    -59.123200    18.134915    4.648628    -5.973585    2.283408    0.710907    4.904874    -1.198443    -5.575330    -4.068627    -0.864900    0.000000    -49.900600    0.000000    0.000000    0.000000    -1.928814    -3.671531    -6.399788    -6.293477    -1.937394    1.817580    6.425426000000001    -10.020206    -8.449024    0.000000    0.000000    0.000000    -3.374221    12.855153    0.756563    -78.974619    14.527308    8.255948    -3.054435    -23.423304    0.004693    1.554337    -2.537684    -0.034910    14.868689    -7.255797    0.583463    78.694466    -1.472981    -15.263768    4.208784    5.127873    0.012683    0.971462    5.449485    0.041567
3.272717    17.366269    -1.223686    163.428396    -82.044239    -154.922051    -12.451236    -2.516772    -28.524350000000002    0.787381    1.943861    45.457603    3.730034    24.888034    15.814309    9.762900    0.000000    -58.769900    17.98572    4.483131    -6.422232    2.241296    0.585217    5.801250    -1.184371    -5.362273    -4.363263    -0.794100    -0.000000    -50.116700    0.000000    0.000000    0.000000    -2.269201    -3.6021739999999998    -6.019194000000001    -6.273305    -1.886036    1.737956    6.347072000000001    -9.854276    -8.354847999999999    0.000000    0.000000    0.000000    -3.303474    12.605884    0.795112    -78.933174    14.367051    8.236511    -3.057811    -23.582861    0.004773    1.612683    -2.580273    -0.036801    14.729389    -7.050553    0.600190    78.722108    -1.276513    -14.223378    4.199678    5.776054    0.013072    1.206195    5.578809    0.054179
3.320190    17.363415    -1.252527    161.455850    -81.932573    -153.166660    -12.419896    -3.638697    -30.437438    0.911546    2.078747    48.908036    3.759457    24.816970    18.538665    10.621800    0.000000    -57.869400    17.830453    4.306188000000001    -6.862224    2.197882    0.459119    6.706888    -1.172248    -5.159389    -4.675480    -0.724300    -0.000000    -50.364100    0.000000    0.000000    0.000000    -2.600194    -3.51505    -5.600084    -6.254966    -1.825587    1.651043    6.267946    -9.689711999999998    -8.271353999999999    0.000000    0.000000    0.000000    -3.261095    12.359678    0.836020    -78.857818    14.177555    8.234689    -3.059355    -23.785016    0.004828    1.658640    -2.625797    -0.038494    14.595909    -6.832932    0.620338    78.700704    -1.081228    -13.147959    4.184929    6.518519    0.013531    1.400605    5.754482    0.065894
3.368365    17.358901    -1.279419    159.495824    -81.825370    -151.431971    -12.411586    -4.656098    -32.435344    1.011563    2.211482    52.308100    3.777343    24.567269    21.111502    11.304200    0.000000    -56.524500    17.667439    4.13662    -7.300352    2.151900    0.332445    7.630666    -1.165485    -4.983536    -5.009846    -0.656800    -0.000000    -50.624800    0.000000    0.000000    0.000000    -2.926979    -3.413966    -5.15297    -6.239454    -1.758110    1.559015    6.192721999999999    -9.528538000000001    -8.19919    0.000000    0.000000    0.000000    -3.243987    12.120759    0.878421    -78.749036    13.961682    8.244889    -3.058907    -24.028622    0.004868    1.699975    -2.676877    -0.040187    14.478049    -6.607322    0.643284    78.621562    -0.881601    -12.056834    4.163500    7.330950    0.014057    1.539740    5.981078    0.075911
3.416897    17.352914    -1.304605    157.529108    -81.725680    -149.691062    -12.43224    -5.571451000000001    -34.525627    1.094808    2.347710    55.653103    3.785584    24.180432    23.427043    11.791500    0.000000    -54.920500    17.495857    3.99162    -7.744306999999999    2.102024    0.205001    8.580479    -1.167401    -4.851869    -5.369079    -0.592700    0.000000    -50.881400    0.000000    0.000000    0.000000    -3.254599    -3.304671    -4.689151    -6.227365    -1.686633    1.464184    6.125793000000001    -9.37245    -8.138048    0.000000    0.000000    0.000000    -3.247285    11.891887    0.921462    -78.609738    13.723253    8.258185    -3.056343    -24.310014    0.004913    1.747333    -2.736728    -0.042280    14.383884    -6.378841    0.668240    78.479202    -0.669479    -10.973388    4.134931    8.184069    0.014645    1.613436    6.261882    0.083530
